<?xml version="1.0" encoding="UTF-8" standalone="no"?>
<svg
   width="16"
   height="16"
   fill="currentColor"
   class="bi bi-file-earmark-music"
   viewBox="0 0 16 16"
   version="1.1"
   id="svg2"
   sodipodi:docname="file-earmark-music.svg"
   inkscape:version="1.4.3 (fcd0343856, 2026-01-01)"
   xmlns:inkscape="http://www.inkscape.org/namespaces/inkscape"
   xmlns:sodipodi="http://sodipodi.sourceforge.net/DTD/sodipodi-0.dtd"
   xmlns="http://www.w3.org/2000/svg"
   xmlns:svg="http://www.w3.org/2000/svg">
  <defs
     id="defs2" />
  <sodipodi:namedview
     id="namedview2"
     pagecolor="#ffffff"
     bordercolor="#000000"
     borderopacity="0.25"
     inkscape:showpageshadow="2"
     inkscape:pageopacity="0.0"
     inkscape:pagecheckerboard="0"
     inkscape:deskcolor="#d1d1d1"
     inkscape:zoom="20"
     inkscape:cx="7.875"
     inkscape:cy="7.9"
     inkscape:window-width="1734"
     inkscape:window-height="1266"
     inkscape:window-x="26"
     inkscape:window-y="23"
     inkscape:window-maximized="0"
     inkscape:current-layer="svg2" />
  <path
     d="m 11,4.8199869 a 1,1 0 0 0 -1.243,-0.97 l -1,0.25 a 1,1 0 0 0 -0.757,0.97 v 4.306 a 2.6,2.6 0 0 0 -1,-0.196 c -0.5,0 -0.974,0.134 -1.338,0.377 C 5.302,9.7969869 5,10.184987 5,10.679987 c 0,0.495 0.301,0.883 0.662,1.123 0.364,0.243 0.839,0.377 1.338,0.377 0.499,0 0.974,-0.134 1.338,-0.377 0.36,-0.24 0.662,-0.628 0.662,-1.123 V 7.0699869 l 2,-0.5 z"
     id="path1" />
  <path
     d="M 8,15 A 7,7 0 1 1 8,1 7,7 0 0 1 8,15 m 0,1 A 8,8 0 1 0 8,0 8,8 0 0 0 8,16"
     id="path1-6" />
</svg>
